<svg class="fox-news-channel" width="90" height="90" viewBox="0 0 90 90" xmlns="http://www.w3.org/2000/svg">
  <g fill="none" fill-rule="evenodd">
    <path fill="#FFF" d="M0 0h90v90H0z"/>
    <path id="channel" d="M83.0000566 85.8999551h2.9998829v-7.899961h-2.9998829v7.899961zm-4.1201367-2.859961c.0202149-2.0399414-1.7597461-3.260039-4.6299023-3.260039h-.069961c-2.7799804 0-4.5801562 1.190039-4.5801562 3.1401562 0 1.9499414 1.8400781 3.0798633 4.6501172 3.0798633 2.3299804 0 3.9999023-.7398633 4.5-2.0000391h-2.8699805c-.2098828.4201172-.72.6401954-1.53.6401954-1.0601367 0-1.6300195-.4399805-1.6300195-1.26h6.1599023c.0084375-.1133789.0084375-.2269336 0-.3401368zM65.669959 82.0000723c-.0400781-1.4700586-.8699414-2.16-3.0800391-2.16h-.0699609c-1.0107422-.0849024-2.0109375.2557617-2.7599414.9400781v-.7801172h-2.8499414v5.8299609h2.9998828v-3.1299609c0-1.0000195.4301367-1.4099414 1.5101367-1.4099414s1.2498047.5199609 1.2498047 1.5899414v2.9300977h3.0000586v-3.8100586zm-14.109961 0c-.0399023-1.4700586-.8599218-2.16-3.0700195-2.16h-.0298828c-1.0107422-.0849024-2.0112891.2557617-2.7601172.9400781v-.7801172h-2.900039v5.8299609h3.0000585v-3.1299609c0-1.0000195.429961-1.4099414 1.5101368-1.4099414 1.0798242 0 1.2498047.5199609 1.2498047 1.5899414v2.9300977h3.0000585v-3.8100586zm-13.2999609 3.5899804c-.2599805-.1000195-.4000781-.4100976-.4000781-.9300586l-.0100195.0100196V82.459916c.1183007-.683789-.1058204-1.3823437-.5999415-1.8697851-1.0054687-.6078516-2.1805664-.8745118-3.3498632-.7600782-2.5901368 0-4.0000782.63-4.2901172 1.9998633h2.7499219c.1200585-.4299609.6201562-.659707 1.4800781-.659707s1.1800195.1798242 1.1800195.5199609v.1397461c0 .4501758-1.1300976.36-3.24.6802735-1.6099805.2399414-2.4199805.8398828-2.4199805 1.8098437s1.059961 1.6799414 2.8499414 1.6799414c1.0235743.0304102 2.0332618-.2445117 2.9000391-.7899609.0300586.2044336.080332.4055273.1499414.6001172h3.0000586v-.2200782zm-12.78-3.69c0-1.3000781-1.0300781-1.98-2.9399414-1.98h-.0200391c-1.0165429-.0750586-2.0220117.251543-2.8000195.9100196v-2.8300782h-3.0000586v7.9001368h3.0000586v-3.1100977c0-1.0000195.4299609-1.4099414 1.5099609-1.4099414s1.2499805.5199609 1.2499805 1.5899414v2.9300977h3.0000586v-4.0000782zM7.04990039 82.9100918c0-1.0599609.57005859-1.6801172 1.60013672-1.6801172.57638672-.1001953 1.14275391.2228906 1.34999999.7700977h3.0000586c-.1900195-1.4201368-1.8-2.2700391-4.30998047-2.2700391-2.87015625.0400781-4.69019531 1.2700195-4.69019531 3.2700586 0 1.8198633 1.78998047 2.9998828 4.51019531 2.9998828 2.50980467 0 4.14984377-.8699414 4.44990237-2.3498437h-2.9599805c-.16998046.5698828-.64001952.8499023-1.4099414.8499023-1.00001953 0-1.54019531-.5299805-1.54019531-1.5899414zM.00001758 90.0000527H90.0000176V74.003959H.00001758v15.9960937zm32.17007812-5.960039c0 .4000781.4299609.6901172 1.1000391.6901172 1.0098632 0 1.7298632-.3802149 1.7298632-1.0000196v-.6699023c-.5987109.164707-1.2113085.2752734-1.8300585.3297656-.6899415.1200586-.9998438.2499609-.9998438.6500391zm43.7999414-1.7699414h-3.3999609c.1198828-.7799414.740039-1.2000586 1.6999804-1.2000586.9599414 0 1.6799414.4399804 1.6999805 1.2000586z" fill="#C20017"/>
    <path id="kliegs-and-fox-news" d="M79.7099414 47.6899805c-4.8000586 0-7.7398242 2.9499609-7.7398242 6.9199804 0 3.4301954 1.9998633 5.1199805 5.9999414 6.3200391 2.3899219.72 3.6599414.6600586 3.6599414 2.2000781 0 .81-.7500586 1.44-2.0000391 1.44-1.6439062.1884375-3.1489453-.9391992-3.4300195-2.5700976l-5.0598633 1.1100586C72 67.1101172 74.9800195 69.4901953 79.5499805 69.4901953c2.2591406.0609961 4.4386523-.8361914 6.0001172-2.4700781 1.154707-1.2677344 1.7869921-2.9253516 1.7699414-4.6400977.0940429-1.6755468-.5361328-3.3108398-1.7300391-4.4899804h.0100195c-1.4000976-1.2900586-3.0000586-1.6300196-4.8000586-2.139961-2.1299414-.6001172-3.2999414-.6600586-3.2999414-1.9000195.0428907-.4438477.2613868-.8521875.6071485-1.1337891.3455859-.2819531.7894336-.413789 1.2329297-.3661523 1.3577343-.1112695 2.5934765.7848633 2.9098828 2.1099023L86.85 52.9301953c-.8555273-3.2058984-3.8253516-5.3852344-7.1400586-5.2402148zM67.2600586 69.4501172l4.8999023-21.0800391h-4.340039l-2.6098242 12.0698438-2.5500586-12.0698438h-4.5l-2.43 12.1900782-2.5300196-12.1900782h-5.3699414l4.8700196 21.0800391H57.6l2.3999414-12.0802149 2.4700781 12.0802149h4.7900391zm-20.34-5.0700586H38.52v-3.5500781h6.8099414v-4.5098438H38.52v-3.0700195h8.2900195v-4.8800391H33.2701172v21.0800391h13.6499414v-5.0700586zM31.9399805 48.4300195h-5.199961l-.020039 10.5201563-6.279961-10.4900977h-6.0899414v21.0000586h5.3499024V57.1900781l7.1699414 12.24h5.0700586V48.4300195zm-1.6300196-4.430039h6.6900586v-7.3198828h6.57v-6.1400391h-6.57v-2.9299219H45l-.4399805-6.1600781H30.3099609v22.5499219zm14.3901563-11.1700196c.1040625 6.3697852 5.3500781 11.4503907 11.7198633 11.3500196h.020039c6.3620508.0891211 11.5959375-4.9881446 11.7-11.3500196-.2596289-6.2845312-5.4300586-11.2456054-11.720039-11.2456054-6.2898047 0-11.4602344 4.9610742-11.7198633 11.2456054zm20.2997461-11.3498437l6.5801953 10.8399023-6.7700391 11.61H72l3.2800781-5.5300781 3.3598828 5.5400977h7.359961l-7.0998047-11.679961 6.3898242-10.7699414h-7.29l-2.7499219 4.6798242-2.8499414-4.6898437h-7.4002148zM87.5501367 45.09h-1.1100586c1.2587696 2.3236523 2.390625 4.7135742 3.3899414 7.1599219H90v20.6992969H.61242187L13.0000781 53.6101172v-6.6100781h3.8798438l12.1201172-19.7701172v-7.2298828h4.9099218l6.84-10.62000004C49.1944922 11.5446094 57.1746094 15.2279297 64.3000781 20.25h1.6999805c-1.2132422-.9-2.4600586-1.7632617-3.7400977-2.5899609-6.4487109-4.1470313-13.5174023-7.2391993-20.9399414-9.15996098L46.9200586 0H90v50.1901172c-.7599023-1.726875-1.5767578-3.4266797-2.4498633-5.1001172zM14.94 0H0v10.0000195c4.42740234-1.48623044 8.98892578-2.53792966 13.6198828-3.13998044L14.94 0zm41.4850781 39.3665625c1.0819336 0 1.9796485-.8370703 2.0550586-1.916543v-9.5698828c-.042539-1.1408203-.9687304-2.0496094-2.1100781-2.0701758-1.1114649.0479883-1.9905469.9578321-2.0000391 2.0701758v9.5698828c.0752344 1.0794727.9729492 1.916543 2.0550586 1.916543zM35.1699609 0h-9.54l-2.3999414 6.22001953c2.8773633-.00421875 5.7524414.16277344 8.6099414.50009766L35.1699609 0zM22.8900586 7.2L.10757813 72.9492188h.10669921L31.3899609 7.66001953C28.5684961 7.33570313 25.7299805 7.18207031 22.8900586 7.2zm-9.4900781.69011719L0 71.7800977V11.1000586h.0599414C4.3922461 9.60082031 8.85990235 8.52574219 13.3999805 7.89011719z" fill="#036"/>
  </g>
</svg>
