<svg xmlns="http://www.w3.org/2000/svg" width="347" height="102" viewBox="0 0 347 102" fill="none"><path d="M39.1 4.64999C39.1 2.44999 40.9 0.649994 43.1 0.649994H52.4C54.6 0.649994 56.4 2.44999 56.4 4.64999V97.95C56.4 100.15 54.6 101.95 52.4 101.95H43.1C40.9 101.95 39.1 100.15 39.1 97.95V4.64999V4.64999Z" fill="url(#paint0_linear)"></path><g style="mix-blend-mode:multiply"><path d="M56.5 31.85L11.2 77.65C9.6 79.25 9.6 81.95 11.2 83.55L18.4 90.75C20 92.35 22.6 92.35 24.3 90.75L56.6 58.15V31.85H56.5Z" fill="#93CCE9"></path></g><g style="mix-blend-mode:multiply"><path d="M56.5 42.75H4.10001C1.90001 42.75 0.100006 44.55 0.100006 46.75V55.95C0.100006 58.15 1.90001 59.95 4.10001 59.95H56.5V42.75Z" fill="#4683C4"></path></g><g style="mix-blend-mode:multiply"><path d="M56.5 44.55L24.2 11.85C22.6 10.25 20 10.25 18.4 11.85L11.3 18.95C9.70001 20.55 9.70001 23.25 11.3 24.85L56.5 70.55V44.55Z" fill="#6A4998"></path></g><path d="M338.4 23.45H341.5V24.15H340.4V27.65H339.6V24.15H338.5V23.45H338.4Z" fill="#0E3F5E"></path><path d="M342 23.45H343L344.3 26.55L345.6 23.45H346.5V27.65H345.7V24.95L344.6 27.65H344L342.9 24.95V27.65H342.1V23.45H342Z" fill="#0E3F5E"></path><path d="M83.1 65.55C74.7 65.55 69.1 60.85 68.6 54.75H78.1C78.3 56.95 80.3 58.45 82.9 58.45C85.4 58.45 86.7 57.35 86.7 55.95C86.7 50.85 69.6 54.55 69.6 42.95C69.6 37.55 74.2 33.15 82.4 33.15C90.5 33.15 95 37.65 95.6 43.85H86.7C86.4 41.75 84.8 40.25 82.1 40.25C79.8 40.25 78.6 41.15 78.6 42.65C78.6 47.65 95.6 44.15 95.8 55.85C95.8 61.45 91 65.55 83.1 65.55Z" fill="#0E3F5E"></path><path d="M124 47.95C124 43.65 121.6 41.25 118 41.25C114.3 41.25 112 43.65 112 47.95V65.05H102.4V33.55H112V37.75C113.9 35.15 117.3 33.25 121.5 33.25C128.8 33.25 133.6 38.25 133.6 46.65V65.05H124V47.95Z" fill="#0E3F5E"></path><path d="M155.2 65.55C146 65.55 139 59.35 139 49.35C139 39.35 146.2 33.15 155.4 33.15C164.6 33.15 171.8 39.35 171.8 49.35C171.7 59.35 164.5 65.55 155.2 65.55ZM155.2 57.15C158.6 57.15 161.9 54.65 161.9 49.35C161.9 43.95 158.7 41.55 155.4 41.55C151.9 41.55 148.9 44.05 148.9 49.35C148.8 54.65 151.7 57.15 155.2 57.15Z" fill="#0E3F5E"></path><path d="M174.1 33.65H183.7L188.1 56.15L193.4 33.65H203.6L209 56.05L213.4 33.65H222.5L214 65.15H203.3L198.3 44.75L193.2 65.15H182.6L174.1 33.65Z" fill="#0E3F5E"></path><path d="M246.1 33.15C253.9 33.15 260 39.35 260 49.25C260 59.15 253.8 65.45 246.1 65.45C241.5 65.45 238.1 63.35 236.4 60.55V64.95H226.8V23.25H236.4V37.95C238.2 35.25 241.6 33.15 246.1 33.15ZM243.3 41.55C239.7 41.55 236.4 44.35 236.4 49.35C236.4 54.35 239.7 57.15 243.3 57.15C247 57.15 250.2 54.35 250.2 49.35C250.2 44.35 246.9 41.55 243.3 41.55Z" fill="#0E3F5E"></path><path d="M277.6 33.25C282.3 33.25 285.6 35.35 287.3 38.15V33.65H296.9V65.15H287.3V60.65C285.5 63.45 282.2 65.55 277.5 65.55C269.8 65.55 263.7 59.25 263.7 49.35C263.7 39.45 269.9 33.15 277.6 33.25ZM280.4 41.65C276.8 41.65 273.5 44.35 273.5 49.35C273.5 54.35 276.8 57.15 280.4 57.15C284.1 57.15 287.3 54.35 287.3 49.35C287.3 44.35 284.1 41.65 280.4 41.65Z" fill="#0E3F5E"></path><path d="M304.5 23.35H314.1V65.05H304.5V23.35Z" fill="#0E3F5E"></path><path d="M321.7 23.45H331.3V65.15H321.7V23.45Z" fill="#0E3F5E"></path><defs><linearGradient id="paint0_linear" x1="48.4429" y1="94.7797" x2="47.3872" y2="21.1586" gradientUnits="userSpaceOnUse"><stop stop-color="#9DCBD8"></stop><stop offset="0.118" stop-color="#98C2D5"></stop><stop offset="0.3379" stop-color="#8CABCB"></stop><stop offset="0.6359" stop-color="#7B82B7"></stop><stop offset="0.9973" stop-color="#6A4998"></stop><stop offset="1" stop-color="#6A4998"></stop></linearGradient></defs></svg>