<?xml version="1.0" encoding="utf-8"?>
<!-- Generator: Adobe Illustrator 25.4.1, SVG Export Plug-In . SVG Version: 6.00 Build 0)  -->
<svg version="1.1" id="Layer_1" xmlns="http://www.w3.org/2000/svg" xmlns:xlink="http://www.w3.org/1999/xlink" x="0px" y="0px"
	 viewBox="0 0 468 222.5" style="enable-background:new 0 0 468 222.5;" xml:space="preserve">
<style type="text/css">
	.st0{fill:#3D95CE;}
</style>
<g>
	<path class="st0" d="M82,67.7c3.1,5.1,4.5,10.3,4.5,16.9c0,21.1-18,48.5-32.6,67.8H20.4L7,72.3l29.2-2.8l7.1,57
		c6.6-10.8,14.8-27.7,14.8-39.3c0-6.3-1.1-10.6-2.8-14.2L82,67.7z"/>
	<path class="st0" d="M119.8,103c5.4,0,18.9-2.5,18.9-10.2c0-3.7-2.6-5.5-5.7-5.5C127.7,87.3,120.6,93.7,119.8,103z M119.2,118.2
		c0,9.4,5.2,13.1,12.2,13.1c7.5,0,14.8-1.8,24.2-6.6l-3.5,24c-6.6,3.2-16.9,5.4-26.9,5.4c-25.4,0-34.5-15.4-34.5-34.6
		c0-24.9,14.8-51.4,45.3-51.4c16.8,0,26.2,9.4,26.2,22.5C162,111.6,134.9,118.1,119.2,118.2z"/>
	<path class="st0" d="M246.4,86.5c0,3.1-0.5,7.5-0.9,10.5l-8.8,55.4h-28.5l8-50.8c0.2-1.4,0.6-4.2,0.6-5.7c0-3.7-2.3-4.6-5.1-4.6
		c-3.7,0-7.4,1.7-9.8,2.9l-9.1,58.2h-28.6l13.1-83h24.8l0.3,6.6c5.8-3.8,13.5-8,24.5-8C241.3,68,246.4,75.4,246.4,86.5z"/>
	<path class="st0" d="M330.9,77.1c8.2-5.8,15.9-9.1,26.5-9.1c14.6,0,19.7,7.4,19.7,18.5c0,3.1-0.5,7.5-0.9,10.5l-8.8,55.4h-28.5
		l8.2-51.9c0.2-1.4,0.5-3.1,0.5-4.2c0-4.2-2.3-5.1-5.1-5.1c-3.5,0-7.1,1.5-9.7,2.9l-9.1,58.2h-28.5l8.2-51.9
		c0.2-1.4,0.5-3.1,0.5-4.2c0-4.2-2.3-5.1-5.1-5.1c-3.7,0-7.4,1.7-9.8,2.9l-9.1,58.2h-28.6l13.1-83h24.5l0.8,6.9
		c5.7-4.2,13.4-8.3,23.7-8.3C322.1,68,328,71.9,330.9,77.1z"/>
	<path class="st0" d="M433.8,101.3c0-6.8-1.7-11.4-6.8-11.4c-11.2,0-13.5,19.9-13.5,30c0,7.7,2.2,12.5,7.2,12.5
		C431.3,132.4,433.8,111.4,433.8,101.3z M384.5,118.7c0-26.2,13.8-50.7,45.7-50.7c24,0,32.8,14.2,32.8,33.7
		c0,25.9-13.7,52.7-46.3,52.7C392.5,154.4,384.5,138.5,384.5,118.7z"/>
</g>
</svg>
