<?xml version="1.0" encoding="UTF-8"?>
<svg data-name="Layer 1" viewBox="0 0 496.87 88.59" xmlns="../../../external.html?link=http://www.w3.org/2000/svg">
<title>wandsworth times-guardian</title>
<path transform="translate(-1)" d="M218.38,11.26a2.67,2.67,0,0,1-1.15.54v.34h5.6V11.8a2.58,2.58,0,0,1-1.21-.54,1.56,1.56,0,0,1-.27-1.08V2.56a2.09,2.09,0,0,1,.27-1.35,2.58,2.58,0,0,1,1.21-.54V.34h-5.6V.67a2.63,2.63,0,0,1,1.22.54,1.72,1.72,0,0,1,.27,1.15V5.6h-5.67V2.23a1.43,1.43,0,0,1,.27-1,2.73,2.73,0,0,1,1.15-.54V.34h-5.53V.67a2.58,2.58,0,0,1,1.21.54,1.67,1.67,0,0,1,.27,1.15V9.91a3.42,3.42,0,0,1-.13,1.08.88.88,0,0,1-.41.47,2.41,2.41,0,0,1-.94.34v.34h5.53V11.8a2.05,2.05,0,0,1-1.15-.54,1.71,1.71,0,0,1-.27-1.15V6.41h5.67v3.5a2,2,0,0,1-.34,1.35Zm-14.77,0a2,2,0,0,1-.33-1.21V1h1.21a2.58,2.58,0,0,1,1.69.47A3,3,0,0,1,207.12,3h.34l-.14-2.9H207a2.45,2.45,0,0,1-1.15.27h-7.62a1.83,1.83,0,0,1-1.15-.27h-.33l-.21,2.83h.34a2.91,2.91,0,0,1,.95-1.48A2.6,2.6,0,0,1,199.5.94h1.21v9a1.71,1.71,0,0,1-.33,1.28,2.67,2.67,0,0,1-1.15.54v.34h5.53V11.8a2.09,2.09,0,0,1-1.15-.54Zm-12.2-8a2.31,2.31,0,0,1-.67,1.89,3,3,0,0,1-2.09.61H188V1h.81c1.75,0,2.56.74,2.56,2.29Zm-1.75,8.84V11.8a2.06,2.06,0,0,1-1.15-.47,1.81,1.81,0,0,1-.34-1.15V6.47a3.34,3.34,0,0,1,1.49.21,2.14,2.14,0,0,1,.74.67c.2.34.61.94,1.08,1.89a13.31,13.31,0,0,0,1.75,2.9h3.44V11.8a2.07,2.07,0,0,1-1.15-.54,9.75,9.75,0,0,1-1.28-2.09,14.86,14.86,0,0,0-1.41-2.29A1.81,1.81,0,0,0,192,6.2V6.07A3.52,3.52,0,0,0,193.7,5a2.61,2.61,0,0,0,.61-1.75A2.56,2.56,0,0,0,193.1,1,6.1,6.1,0,0,0,189.72.2h-5.66V.67a2.55,2.55,0,0,1,1.21.48,1.6,1.6,0,0,1,.34,1.14v8c0,.94-.47,1.41-1.48,1.48v.34Zm-10.59-1.76a3,3,0,0,1-2.7,1.42,3.11,3.11,0,0,1-2.69-1.42,6.75,6.75,0,0,1-1-4,8.23,8.23,0,0,1,1-4.25,3.27,3.27,0,0,1,5.39,0A7.79,7.79,0,0,1,180,6.34a7.76,7.76,0,0,1-.94,4Zm2-8.63A6.58,6.58,0,0,0,176.37,0a6.28,6.28,0,0,0-4.58,1.75A6,6,0,0,0,170,6.2a5.85,5.85,0,0,0,1.82,4.45,7,7,0,0,0,9.3,0,5.81,5.81,0,0,0,1.82-4.45A6.26,6.26,0,0,0,181,1.75Zm-15-1.41V.67c.67.14,1,.48,1,1.08a4.68,4.68,0,0,1-.27,1.42L165.18,8l-2.29-6a1.49,1.49,0,0,1-.14-.54c0-.4.27-.67.75-.81V.34h-5.06V.67a2.6,2.6,0,0,1,1,.34,2.27,2.27,0,0,1,.61,1l-2,6-2.15-5.73a2,2,0,0,1-.14-.81q0-.72.81-.81V.34h-5.12V.67a1.86,1.86,0,0,1,1.08.41,4.86,4.86,0,0,1,.74,1.48L157,12.47h.33l3.1-9.3,3.51,9.3h.34l3.23-9.1a5.68,5.68,0,0,1,.95-1.95A1.93,1.93,0,0,1,169.7.67V.34ZM149.34,0a1,1,0,0,1-.61.34c-.2,0-.54-.07-1-.14a4.3,4.3,0,0,0-1.21-.13,4.09,4.09,0,0,0-2.7.94,3.34,3.34,0,0,0-1,2.5,2.88,2.88,0,0,0,.27,1.34A4,4,0,0,0,143.81,6a13.09,13.09,0,0,0,2.09,1.48A8.58,8.58,0,0,1,148,9a1.8,1.8,0,0,1,.4,1.14,1.52,1.52,0,0,1-.6,1.21,2.37,2.37,0,0,1-1.55.48,3,3,0,0,1-2.09-.81,3.84,3.84,0,0,1-1.08-2.16h-.34v3.57h.34a.63.63,0,0,1,.6-.4c.14,0,.48.07.88.13a8.55,8.55,0,0,0,2,.34,4.14,4.14,0,0,0,2.7-.94,3.11,3.11,0,0,0,1.08-2.5,3.29,3.29,0,0,0-.61-1.95,3.11,3.11,0,0,0-.87-1,17.09,17.09,0,0,0-2-1.35c-1-.6-1.62-1.07-1.82-1.21a1.46,1.46,0,0,1-.4-.61,1.89,1.89,0,0,1-.14-.67A1.55,1.55,0,0,1,145,1.21a2,2,0,0,1,1.35-.47,2.68,2.68,0,0,1,1.75.68,4.5,4.5,0,0,1,1.22,1.75h.33V0ZM136.93,2.43a5.68,5.68,0,0,1,1.21,3.84A5.79,5.79,0,0,1,137,10.11a4,4,0,0,1-3.17,1.35,2.69,2.69,0,0,1-1.48-.33,1.28,1.28,0,0,1-.48-1.08V1h1.56a4.31,4.31,0,0,1,3.5,1.42Zm-2.29,9.71a6.79,6.79,0,0,0,4.65-1.55A5.39,5.39,0,0,0,141,6.41,5.44,5.44,0,0,0,139.09,2,7.56,7.56,0,0,0,133.9.34h-6.07V.67a2.58,2.58,0,0,1,1.21.54,1.72,1.72,0,0,1,.27,1.15V9.91a2.12,2.12,0,0,1-.27,1.35,2.58,2.58,0,0,1-1.21.54v.34ZM123.58,1.28a2.9,2.9,0,0,1,.34,1.62V8.23L117,.34H113.4V.67a1.39,1.39,0,0,1,.61.27,9.22,9.22,0,0,1,.94.88v8a2.26,2.26,0,0,1-.34,1.35,1.81,1.81,0,0,1-1.21.54v.41h4V11.8a2.76,2.76,0,0,1-1.42-.54,2.18,2.18,0,0,1-.34-1.35V2.7l8.5,9.57h.4V2.56A1.71,1.71,0,0,1,126.28.61V.34h-4V.67a1.89,1.89,0,0,1,1.28.61ZM105.17,2.5,107,7.28h-3.5Zm7.49,9.64V11.8a1.72,1.72,0,0,1-1.22-.54,4.73,4.73,0,0,1-.94-1.75L106.86,0h-1.62l-3.37,9.1a7.42,7.42,0,0,1-1,2,2,2,0,0,1-1.21.74v.34h3.84V11.8c-.81-.2-1.22-.61-1.22-1.08a2.83,2.83,0,0,1,.21-.94l.6-1.55h4.25l.68,1.82a3.78,3.78,0,0,1,.2.87.55.55,0,0,1-.27.54,2.45,2.45,0,0,1-1,.34v.34ZM97.62.34V.68c.68.13,1,.47,1,1.07a4.39,4.39,0,0,1-.27,1.42L96.75,8l-2.3-6a1.71,1.71,0,0,1-.13-.54c0-.4.27-.67.74-.81V.34H90V.67A2.54,2.54,0,0,1,91,1a2.17,2.17,0,0,1,.61,1l-2,6L87.44,2.23a2.09,2.09,0,0,1-.13-.81q0-.72.81-.81V.34H83V.67a1.83,1.83,0,0,1,1.08.41,4.86,4.86,0,0,1,.74,1.48l3.71,9.91h.34L92,3.17l3.5,9.3h.34l3.31-9.1a5.79,5.79,0,0,1,.94-1.95,1.93,1.93,0,0,1,1.28-.75V.34Z"/>
<path transform="translate(-1)" d="M300.23,19.08h-1.42a4.34,4.34,0,0,1-1.14,1.48,3.47,3.47,0,0,1-2.16.54,23.84,23.84,0,0,1-3-.33c-.54-.14-1.15-.27-2-.48a16.55,16.55,0,0,0-1.82-.4,27.91,27.91,0,0,0-5.39-.54,19.19,19.19,0,0,0-10.72,3,21.72,21.72,0,0,0-7.29,7.89,21.12,21.12,0,0,0-2.56,9.85,15.67,15.67,0,0,0,.68,4.85,16.15,16.15,0,0,0,2.29,4.59,26.16,26.16,0,0,0,4.52,4.78,60.57,60.57,0,0,0,7,5.2c5.19,3.3,8.7,5.66,10.58,7a17.5,17.5,0,0,1,4.25,4,8.16,8.16,0,0,1,1.42,4.79,8.78,8.78,0,0,1-3.37,6.94,12.63,12.63,0,0,1-8.43,2.84,17.44,17.44,0,0,1-7.15-1.62A17.66,17.66,0,0,1,268,78.28a19.81,19.81,0,0,1-3.77-9.1h-1.82L262,88.32h1.62a3.26,3.26,0,0,1,3.1-2.22,11.77,11.77,0,0,1,2,.2c.75.14,1.35.27,1.89.41a42.08,42.08,0,0,0,11.6,1.88,28,28,0,0,0,9-1.41,22.71,22.71,0,0,0,7.22-4,17,17,0,0,0,4.65-6.07,18.1,18.1,0,0,0,1.62-7.75,17.28,17.28,0,0,0-2-8.23,23.65,23.65,0,0,0-5.59-6.74,77.77,77.77,0,0,0-9.51-6.74c-.67-.54-2.56-1.75-5.66-3.71a33.72,33.72,0,0,1-6.21-4.85,11.92,11.92,0,0,1-2.56-3.71,9.62,9.62,0,0,1-.54-3.1,8.68,8.68,0,0,1,5.06-8,11.66,11.66,0,0,1,5.12-1.14,13.76,13.76,0,0,1,9.71,3.64,20.88,20.88,0,0,1,5.87,10h1.82V19.08ZM202.06,20v1.35h.47c3.44,0,5.67.87,6.61,2.56a13.17,13.17,0,0,1,1.42,6.34V77.74A11.69,11.69,0,0,1,209,84.08c-1,1.62-3.37,2.43-6.94,2.43v1.34h51.11l1-16.31h-1.35a29.72,29.72,0,0,1-3.1,7.62,9.42,9.42,0,0,1-4.38,3.77A18,18,0,0,1,238.47,84h-4.18c-5.87,0-8.77-2.83-8.77-8.5V56h10.93a12.6,12.6,0,0,1,6.33,1.55c1.76,1,2.9,3,3.38,6.07h1.34V43.69h-1.34a9.91,9.91,0,0,1-2.63,6.41c-1.49,1.41-3.85,2.15-7.15,2.15H225.46V23.73h13.68A10.45,10.45,0,0,1,244.81,25,9,9,0,0,1,248,28.79a36.84,36.84,0,0,1,2,6.34h1.34l-.53-15.24H202.06V20Zm-31.42,0-18.2,44.63L132.82,20H108.27v1.35c4.93.74,8.84,3.43,11.74,8l-4.59,43q-.81,7.48-3,10.72a8.24,8.24,0,0,1-6.61,3.5v1.35h23.06V86.5a14.78,14.78,0,0,1-4.79-1.07,6.83,6.83,0,0,1-3.3-3.85c-.81-2-1.08-4.85-.81-8.56l3-37.83h.21L146,87.85h1.62l22.18-54.48H170l3.3,43.22c.34,3.91-.27,6.54-1.75,7.82a9.21,9.21,0,0,1-6.14,2.09v1.35h31.15V86.5A17.76,17.76,0,0,1,192.08,85a6,6,0,0,1-2.36-3,27,27,0,0,1-1.35-7.08l-3.7-45.58a8.12,8.12,0,0,1,.8-5.13,5.25,5.25,0,0,1,2.9-2.22,22.45,22.45,0,0,1,4.39-.68V20ZM74.7,23.26c1.34,1.42,2,3.64,2,6.81V77.74a11.61,11.61,0,0,1-1.55,6.34c-1,1.62-3.31,2.43-6.81,2.43v1.34h31.89V86.51h-.34c-2.43,0-4.25-.48-5.39-1.49a5.51,5.51,0,0,1-2.16-3.23,18.78,18.78,0,0,1-.4-4.05V30.07a12,12,0,0,1,1.55-6.4q1.51-2.43,6.87-2.43V19.89h-32V21.1c2.83.07,5,.75,6.33,2.16Zm-72-4.18H1.34L1,35.06H2.42c1.28-4.52,2.63-7.42,4-8.76a7.13,7.13,0,0,1,5.26-2H24.33V77.81a11.61,11.61,0,0,1-1.55,6.34c-1.08,1.61-3.31,2.42-6.88,2.42v1.35h32V86.57a10.52,10.52,0,0,1-5.39-1.14,5.79,5.79,0,0,1-2.43-3,14.42,14.42,0,0,1-.61-4.51V24.21H52.11A9.19,9.19,0,0,1,58,26.09Q60.47,28,61.48,35h1.28l-.4-15.91H61a15.57,15.57,0,0,1-5.46.81H8.15a14.49,14.49,0,0,1-5.46-.81Z" data-name="Shape"/>
<path transform="translate(-1)" d="M323.77,59l-.27,1h-3.36l-.43,3.06h2.9l-.13,1h-2.9L319,68H317.8l1.26-9Zm2.38,9.12a2.49,2.49,0,0,1-1.94-.76,3,3,0,0,1-.69-2.08,5.68,5.68,0,0,1,.36-1.95A4,4,0,0,1,325,61.68a3,3,0,0,1,2-.69,2.45,2.45,0,0,1,1.94.76,3,3,0,0,1,.67,2.08,5.65,5.65,0,0,1-.35,1.94,3.91,3.91,0,0,1-1.14,1.69A3,3,0,0,1,326.15,68.16Zm0-1a1.67,1.67,0,0,0,1.32-.56,3.22,3.22,0,0,0,.72-1.37,6.09,6.09,0,0,0,.21-1.56Q328.44,62,327,62a1.67,1.67,0,0,0-1.32.56,3.22,3.22,0,0,0-.72,1.37,5.7,5.7,0,0,0-.22,1.56C324.77,66.61,325.24,67.19,326.19,67.19ZM335,61a2.84,2.84,0,0,1,.69.09l-.35,1.16a2.4,2.4,0,0,0-.56-.06,1.4,1.4,0,0,0-1.11.55,5.27,5.27,0,0,0-.86,1.64L332.28,68H331.1l1-6.85h1l-.08,1.4a3.17,3.17,0,0,1,.89-1.17A1.78,1.78,0,0,1,335,61Zm8.92,0a1.43,1.43,0,0,1,1.1.46,1.84,1.84,0,0,1,.4,1.25,2.5,2.5,0,0,1,0,.43L344.7,68h-1.18l.67-4.78a2.29,2.29,0,0,0,0-.41.84.84,0,0,0-.2-.64.77.77,0,0,0-.54-.18,1.39,1.39,0,0,0-1,.52,6.94,6.94,0,0,0-1,1.36L341,68h-1.19l.68-4.78a2.43,2.43,0,0,0,0-.41.84.84,0,0,0-.19-.64.78.78,0,0,0-.55-.18,1.37,1.37,0,0,0-1,.52,7.47,7.47,0,0,0-1,1.38L337.24,68h-1.19l1-6.85h1l-.1,1.31a4.37,4.37,0,0,1,1-1.09,2.05,2.05,0,0,1,1.19-.38,1.43,1.43,0,0,1,1,.37,1.56,1.56,0,0,1,.51,1,4.17,4.17,0,0,1,1.07-1A2.2,2.2,0,0,1,343.91,61Zm8.8,1.75a2,2,0,0,1-1.17,1.89,9.81,9.81,0,0,1-3.28.82c0,1.14.52,1.71,1.48,1.71a2.93,2.93,0,0,0,.93-.16,4.24,4.24,0,0,0,.91-.48l.5.8a4.1,4.1,0,0,1-2.45.84,2.49,2.49,0,0,1-1.93-.74,2.87,2.87,0,0,1-.69-2,6,6,0,0,1,.36-2,3.87,3.87,0,0,1,1.15-1.68,3.06,3.06,0,0,1,2-.67,2.29,2.29,0,0,1,1.6.51A1.6,1.6,0,0,1,352.71,62.74Zm-4.38,1.8A7.6,7.6,0,0,0,350.7,64a1.25,1.25,0,0,0,.76-1.21.87.87,0,0,0-.22-.57.92.92,0,0,0-.72-.26,1.75,1.75,0,0,0-1.52.76A4,4,0,0,0,348.33,64.54ZM357.69,61a3,3,0,0,1,.69.09L358,62.24a2.32,2.32,0,0,0-.55-.06,1.43,1.43,0,0,0-1.12.55,5.28,5.28,0,0,0-.85,1.64L355,68H353.8l1-6.85h1l-.08,1.4a3.17,3.17,0,0,1,.89-1.17A1.78,1.78,0,0,1,357.69,61Zm2.38,5.67a.72.72,0,0,0,0,.17.37.37,0,0,0,.08.26.36.36,0,0,0,.25.08,1.59,1.59,0,0,0,.47-.09l.24.86a2.42,2.42,0,0,1-.95.22,1.15,1.15,0,0,1-1.26-1.29c0-.08,0-.21,0-.4l1.14-8.08,1.2-.14Zm5.07,1.41a5.19,5.19,0,0,1-1.38,1.87,4.14,4.14,0,0,1-2.2.83l-.05-.94a4,4,0,0,0,1.14-.33,2.44,2.44,0,0,0,.73-.57A5.16,5.16,0,0,0,364,68h-.44l-1.31-6.85h1.24l1,5.94,2.62-5.94h1.24l-3.17,6.92Zm8.42-1.88c0,.18,0,.29,0,.34a.66.66,0,0,0,.15.48.64.64,0,0,0,.46.15,1.55,1.55,0,0,0,.47-.08,3.77,3.77,0,0,0,.52-.21l.39.83a2.79,2.79,0,0,1-1.52.46,1.71,1.71,0,0,1-1.22-.41,1.53,1.53,0,0,1-.43-1.17,2.07,2.07,0,0,1,0-.41l.57-4.1h-1.18l.13-.92h1.23l.43-1.59.94-.1-.24,1.69h1.61l-.26.92h-1.48l-.57,4.12Zm7.32-5.2a1.59,1.59,0,0,1,1.22.46,1.7,1.7,0,0,1,.44,1.26c0,.19,0,.34,0,.44L381.83,68h-1.19l.68-4.78q0-.28,0-.39a.93.93,0,0,0-.19-.65.74.74,0,0,0-.53-.19,1.73,1.73,0,0,0-1.19.54,5.77,5.77,0,0,0-1,1.36L377.85,68h-1.18L378,58.41l1.19-.13-.59,4.16A2.71,2.71,0,0,1,380.88,61Zm9,1.75a2,2,0,0,1-1.17,1.89,9.81,9.81,0,0,1-3.28.82c0,1.14.52,1.71,1.48,1.71a2.88,2.88,0,0,0,.93-.16,4,4,0,0,0,.91-.48l.5.8a4.1,4.1,0,0,1-2.45.84,2.5,2.5,0,0,1-1.93-.74,2.87,2.87,0,0,1-.69-2,6,6,0,0,1,.36-2,3.87,3.87,0,0,1,1.15-1.68,3.06,3.06,0,0,1,2-.67,2.29,2.29,0,0,1,1.6.51A1.6,1.6,0,0,1,389.85,62.74Zm-4.38,1.8a7.6,7.6,0,0,0,2.37-.56,1.25,1.25,0,0,0,.76-1.21.87.87,0,0,0-.22-.57.92.92,0,0,0-.72-.26,1.75,1.75,0,0,0-1.52.76A4,4,0,0,0,385.47,64.54Z"/>
<path transform="translate(-1)" d="M331.78,75.56,329.49,88H326.4l-1.89-9.92L322.56,88h-3l-2.25-12.44h2.36l1.58,10.55,2-10.55h2.52l2,10.55,1.73-10.55Zm8.71,9.92a1.57,1.57,0,0,0,.17.82,1.11,1.11,0,0,0,.55.4l-.48,1.53a3,3,0,0,1-1.33-.39,2.07,2.07,0,0,1-.78-1,3,3,0,0,1-1.21,1.07,3.78,3.78,0,0,1-1.63.35,3.07,3.07,0,0,1-2.25-.81,2.81,2.81,0,0,1-.83-2.12A2.74,2.74,0,0,1,333.82,83a5.37,5.37,0,0,1,3.22-.82h1.18v-.54a1.67,1.67,0,0,0-.42-1.29,2.07,2.07,0,0,0-1.36-.37,8,8,0,0,0-2.52.51l-.54-1.57a9.75,9.75,0,0,1,3.46-.68q3.65,0,3.65,3.27Zm-4.1,1.12a2,2,0,0,0,1.83-1.17V83.5h-1c-1.49,0-2.23.55-2.23,1.66a1.52,1.52,0,0,0,.34,1.06A1.3,1.3,0,0,0,336.39,86.6Zm12-8.39a2.59,2.59,0,0,1,2,.76,3,3,0,0,1,.71,2.14V88h-2.31V81.47a1.82,1.82,0,0,0-.29-1.19,1.1,1.1,0,0,0-.88-.34,1.7,1.7,0,0,0-1.07.37,4.21,4.21,0,0,0-.92,1.07V88h-2.31V78.48h2l.18,1.24a3.54,3.54,0,0,1,2.9-1.51Zm13.39-3.55V88h-2l-.17-1.21a3.27,3.27,0,0,1-1.14,1.08,3.33,3.33,0,0,1-4.26-1,6.37,6.37,0,0,1-.93-3.67,6.66,6.66,0,0,1,.47-2.6A4,4,0,0,1,355,78.86a3.24,3.24,0,0,1,2-.65,3.32,3.32,0,0,1,2.4,1V74.41l2.3.25Zm-4.27,11.86a1.94,1.94,0,0,0,1.08-.29,3.07,3.07,0,0,0,.89-.93V80.94a3.55,3.55,0,0,0-.84-.75,1.86,1.86,0,0,0-1-.25,1.64,1.64,0,0,0-1.45.82,4.53,4.53,0,0,0-.53,2.47,5,5,0,0,0,.47,2.53,1.49,1.49,0,0,0,1.36.76Zm10-8.31a5.38,5.38,0,0,1,3.38,1.13l-.9,1.35a4.49,4.49,0,0,0-2.39-.77,1.86,1.86,0,0,0-1.06.26.78.78,0,0,0-.38.69.85.85,0,0,0,.16.54,1.46,1.46,0,0,0,.58.41,12.12,12.12,0,0,0,1.26.42,5.49,5.49,0,0,1,2.29,1.1,2.44,2.44,0,0,1,.75,1.91,2.58,2.58,0,0,1-1.15,2.22,5,5,0,0,1-2.87.8,6,6,0,0,1-2.13-.36,5.09,5.09,0,0,1-1.66-1l1.15-1.3a4.22,4.22,0,0,0,2.59.94,2.11,2.11,0,0,0,1.23-.31.94.94,0,0,0,.46-.84,1.08,1.08,0,0,0-.17-.66,1.45,1.45,0,0,0-.61-.43,11.39,11.39,0,0,0-1.38-.46,4.53,4.53,0,0,1-2.14-1.11,2.42,2.42,0,0,1-.68-1.77,2.32,2.32,0,0,1,.46-1.42,3,3,0,0,1,1.29-1,4.83,4.83,0,0,1,1.92-.36Zm17.19.27L382.65,88h-2.88l-1.44-7.47L376.85,88H374l-2.11-9.52h2.3l1.34,7.83,1.65-7.83h2.36l1.51,7.83,1.42-7.83Zm5.47-.27a4.18,4.18,0,0,1,3.29,1.34,5.4,5.4,0,0,1,1.17,3.68,6.1,6.1,0,0,1-.54,2.64,4.1,4.1,0,0,1-1.54,1.77,4.45,4.45,0,0,1-2.4.63,4.18,4.18,0,0,1-3.29-1.34,5.39,5.39,0,0,1-1.19-3.7,6.06,6.06,0,0,1,.54-2.63,4.11,4.11,0,0,1,1.56-1.76A4.45,4.45,0,0,1,390.19,78.21Zm0,1.74c-1.38,0-2.07,1.1-2.07,3.28a4.73,4.73,0,0,0,.51,2.49,1.88,1.88,0,0,0,3.08,0,4.73,4.73,0,0,0,.51-2.48,4.67,4.67,0,0,0-.51-2.47A1.68,1.68,0,0,0,390.19,80Zm11.32-1.72a3.6,3.6,0,0,1,1,.12l-.4,2.23a3.58,3.58,0,0,0-.85-.1,1.63,1.63,0,0,0-1.33.6,4.68,4.68,0,0,0-.77,1.84V88h-2.31V78.48h2l.22,1.87a3.43,3.43,0,0,1,1-1.57A2.22,2.22,0,0,1,401.51,78.23Zm7.85,9.32a3.69,3.69,0,0,1-1.13.54,4.46,4.46,0,0,1-1.26.18,2.84,2.84,0,0,1-2.14-.8,3.3,3.3,0,0,1-.73-2.31v-5h-1.49V78.48h1.49V76.37l2.31-.27v2.38h2.21l-.23,1.65h-2v5a1.65,1.65,0,0,0,.24,1,.94.94,0,0,0,.77.31,2.36,2.36,0,0,0,1.13-.35l.81,1.48Zm6.37-9.34a2.59,2.59,0,0,1,2,.77,3,3,0,0,1,.72,2.13V88h-2.3V81.47a1.81,1.81,0,0,0-.3-1.19,1.09,1.09,0,0,0-.87-.34,1.67,1.67,0,0,0-1.06.37,3.92,3.92,0,0,0-.94,1V88h-2.3V74.68l2.3-.23v5.16a3.49,3.49,0,0,1,2.77-1.4Zm15-2.92a6.09,6.09,0,0,1,2.17.37,6.47,6.47,0,0,1,1.79,1.09l-1.28,1.33a4.86,4.86,0,0,0-1.25-.75,3.55,3.55,0,0,0-1.36-.24,2.9,2.9,0,0,0-2.36,1.15,5.64,5.64,0,0,0-.92,3.53,6.72,6.72,0,0,0,.73,3.58,2.48,2.48,0,0,0,2.23,1.1,4,4,0,0,0,2-.48V82.73h-1.88L430.31,81h4.47v6.09a8.21,8.21,0,0,1-4.29,1.22,5.07,5.07,0,0,1-4.08-1.66A7.26,7.26,0,0,1,425,81.77a7.5,7.5,0,0,1,.77-3.5,5.29,5.29,0,0,1,2.06-2.22,5.54,5.54,0,0,1,2.88-.76Zm14,12.71h-2l-.12-1.33a3.51,3.51,0,0,1-1.23,1.2,3.38,3.38,0,0,1-1.69.4,2.5,2.5,0,0,1-2-.78,3.18,3.18,0,0,1-.69-2.17V78.48h2.3V85a1.81,1.81,0,0,0,.28,1.15,1.08,1.08,0,0,0,.89.34,2.33,2.33,0,0,0,1.93-1.35V78.48h2.3V88Zm9.81-2.52a1.57,1.57,0,0,0,.17.82,1.11,1.11,0,0,0,.55.4l-.48,1.53a3,3,0,0,1-1.33-.39,2.07,2.07,0,0,1-.78-1,3,3,0,0,1-1.21,1.07,3.78,3.78,0,0,1-1.63.35,3.07,3.07,0,0,1-2.25-.81,2.81,2.81,0,0,1-.83-2.12A2.74,2.74,0,0,1,447.85,83a5.37,5.37,0,0,1,3.22-.82h1.18v-.54a1.67,1.67,0,0,0-.42-1.29,2.07,2.07,0,0,0-1.36-.37,8,8,0,0,0-2.52.51l-.54-1.57a9.75,9.75,0,0,1,3.46-.68q3.64,0,3.65,3.27Zm-4.1,1.12a2,2,0,0,0,1.83-1.17V83.5h-.95c-1.49,0-2.23.55-2.23,1.66a1.52,1.52,0,0,0,.34,1.06A1.3,1.3,0,0,0,450.42,86.6ZM462,78.23a3.48,3.48,0,0,1,.95.12l-.39,2.23a3.58,3.58,0,0,0-.85-.1,1.62,1.62,0,0,0-1.33.6,4.68,4.68,0,0,0-.77,1.84V88h-2.31V78.48h2l.22,1.87a3.27,3.27,0,0,1,1-1.57A2.22,2.22,0,0,1,462,78.23Zm10.4-3.57V88h-2l-.16-1.21a3.27,3.27,0,0,1-1.14,1.08,3.09,3.09,0,0,1-1.58.4,3.06,3.06,0,0,1-2.68-1.35,6.29,6.29,0,0,1-.94-3.67,6.85,6.85,0,0,1,.47-2.6,4.1,4.1,0,0,1,1.34-1.79,3.39,3.39,0,0,1,4.42.37V74.41l2.3.25Zm-4.26,11.86a1.94,1.94,0,0,0,1.08-.29,3.17,3.17,0,0,0,.88-.93V80.94a3.55,3.55,0,0,0-.84-.75,1.86,1.86,0,0,0-1-.25,1.65,1.65,0,0,0-1.45.82,4.63,4.63,0,0,0-.53,2.47,5.09,5.09,0,0,0,.47,2.53,1.5,1.5,0,0,0,1.37.76Zm9.34-8V88h-2.3V78.48Zm-1.17-4.83a1.42,1.42,0,0,1,1.05.41,1.41,1.41,0,0,1,0,2,1.45,1.45,0,0,1-1.05.39,1.4,1.4,0,0,1-1-.39,1.41,1.41,0,0,1,0-2A1.38,1.38,0,0,1,476.32,73.65Zm11,11.83a1.57,1.57,0,0,0,.17.82,1.07,1.07,0,0,0,.55.4l-.49,1.53a2.9,2.9,0,0,1-1.32-.39,2.07,2.07,0,0,1-.78-1,3,3,0,0,1-1.22,1.07,3.75,3.75,0,0,1-1.63.35,3.1,3.1,0,0,1-2.25-.81,2.84,2.84,0,0,1-.82-2.12A2.74,2.74,0,0,1,480.63,83a5.36,5.36,0,0,1,3.21-.82H485v-.54a1.67,1.67,0,0,0-.42-1.29,2.09,2.09,0,0,0-1.36-.37,7.91,7.91,0,0,0-2.52.51l-.54-1.57a9.75,9.75,0,0,1,3.46-.68q3.64,0,3.65,3.27Zm-4.1,1.12A2,2,0,0,0,485,85.43V83.5h-.95c-1.49,0-2.23.55-2.23,1.66a1.52,1.52,0,0,0,.34,1.06A1.3,1.3,0,0,0,483.2,86.6Zm12-8.39a2.59,2.59,0,0,1,2,.76,3,3,0,0,1,.71,2.14V88h-2.31V81.47a1.88,1.88,0,0,0-.29-1.19,1.1,1.1,0,0,0-.88-.34,1.7,1.7,0,0,0-1.07.37,4,4,0,0,0-.93,1.07V88h-2.3V78.48h2l.18,1.24a3.52,3.52,0,0,1,2.9-1.51Z"/>
</svg>
